<mxfile host="app.diagrams.net" agent="Mozilla/5.0 (Windows NT 10.0; Win64; x64) AppleWebKit/537.36 (KHTML, like Gecko) Chrome/133.0.0.0 Safari/537.36" version="26.0.16">
  <diagram name="PÃ¡gina-1" id="Nnh60td6lPOJHx4A675l">
    <mxGraphModel dx="1127" dy="781" grid="0" gridSize="10" guides="1" tooltips="1" connect="1" arrows="1" fold="1" page="0" pageScale="1" pageWidth="827" pageHeight="1169" math="0" shadow="0">
      <root>
        <mxCell id="0" />
        <mxCell id="1" parent="0" />
        <mxCell id="kA1zZRthYYEZTJrhDJfg-10" style="edgeStyle=none;curved=1;rounded=0;orthogonalLoop=1;jettySize=auto;html=1;exitX=0.5;exitY=1;exitDx=0;exitDy=0;fontSize=12;startSize=8;endSize=8;" parent="1" source="kA1zZRthYYEZTJrhDJfg-1" target="kA1zZRthYYEZTJrhDJfg-6" edge="1">
          <mxGeometry relative="1" as="geometry" />
        </mxCell>
        <mxCell id="kA1zZRthYYEZTJrhDJfg-1" value="1" style="shape=process;whiteSpace=wrap;html=1;backgroundOutline=1;" parent="1" vertex="1">
          <mxGeometry x="47" y="-103" width="92" height="68" as="geometry" />
        </mxCell>
        <mxCell id="kA1zZRthYYEZTJrhDJfg-6" value="2" style="rounded=0;whiteSpace=wrap;html=1;" parent="1" vertex="1">
          <mxGeometry x="47" y="33" width="97" height="64" as="geometry" />
        </mxCell>
        <mxCell id="kA1zZRthYYEZTJrhDJfg-7" value="4" style="rounded=0;whiteSpace=wrap;html=1;" parent="1" vertex="1">
          <mxGeometry x="47" y="236" width="97" height="64" as="geometry" />
        </mxCell>
        <mxCell id="kA1zZRthYYEZTJrhDJfg-13" value="" style="endArrow=none;html=1;rounded=0;fontSize=12;startSize=8;endSize=8;curved=1;" parent="1" edge="1">
          <mxGeometry width="50" height="50" relative="1" as="geometry">
            <mxPoint x="79.5" y="-4" as="sourcePoint" />
            <mxPoint x="111.5" y="-4" as="targetPoint" />
          </mxGeometry>
        </mxCell>
        <mxCell id="kA1zZRthYYEZTJrhDJfg-14" value="s1*s2*s3*s5*s6" style="text;html=1;align=center;verticalAlign=middle;resizable=0;points=[];autosize=1;strokeColor=none;fillColor=none;fontSize=16;" parent="1" vertex="1">
          <mxGeometry x="121" y="-20" width="127" height="31" as="geometry" />
        </mxCell>
        <mxCell id="kA1zZRthYYEZTJrhDJfg-15" value="Enciende actuador banda" style="rounded=1;whiteSpace=wrap;html=1;" parent="1" vertex="1">
          <mxGeometry x="144" y="39" width="114" height="52" as="geometry" />
        </mxCell>
        <mxCell id="kA1zZRthYYEZTJrhDJfg-16" value="Rutina Manipulador" style="rounded=1;whiteSpace=wrap;html=1;" parent="1" vertex="1">
          <mxGeometry x="258" y="39" width="114" height="52" as="geometry" />
        </mxCell>
        <mxCell id="kA1zZRthYYEZTJrhDJfg-17" value="Cierre molde" style="rounded=1;whiteSpace=wrap;html=1;" parent="1" vertex="1">
          <mxGeometry x="372" y="39" width="114" height="52" as="geometry" />
        </mxCell>
        <mxCell id="kA1zZRthYYEZTJrhDJfg-18" value="Apaga actuador&amp;nbsp;&lt;div&gt;motor-robot&lt;/div&gt;" style="rounded=1;whiteSpace=wrap;html=1;" parent="1" vertex="1">
          <mxGeometry x="486" y="39" width="114" height="52" as="geometry" />
        </mxCell>
        <mxCell id="kA1zZRthYYEZTJrhDJfg-19" value="" style="endArrow=none;html=1;rounded=0;fontSize=12;startSize=8;endSize=8;curved=1;" parent="1" edge="1">
          <mxGeometry width="50" height="50" relative="1" as="geometry">
            <mxPoint x="428.5" y="37" as="sourcePoint" />
            <mxPoint x="428.5" y="-9" as="targetPoint" />
          </mxGeometry>
        </mxCell>
        <mxCell id="kA1zZRthYYEZTJrhDJfg-20" value="" style="endArrow=none;html=1;rounded=0;fontSize=12;startSize=8;endSize=8;curved=1;" parent="1" edge="1">
          <mxGeometry width="50" height="50" relative="1" as="geometry">
            <mxPoint x="542.5" y="39" as="sourcePoint" />
            <mxPoint x="542.5" y="-7" as="targetPoint" />
          </mxGeometry>
        </mxCell>
        <mxCell id="kA1zZRthYYEZTJrhDJfg-22" value="" style="endArrow=none;html=1;rounded=0;fontSize=12;startSize=8;endSize=8;curved=1;" parent="1" edge="1">
          <mxGeometry width="50" height="50" relative="1" as="geometry">
            <mxPoint x="413" y="13" as="sourcePoint" />
            <mxPoint x="445" y="13" as="targetPoint" />
          </mxGeometry>
        </mxCell>
        <mxCell id="kA1zZRthYYEZTJrhDJfg-24" value="" style="endArrow=none;html=1;rounded=0;fontSize=12;startSize=8;endSize=8;curved=1;" parent="1" edge="1">
          <mxGeometry width="50" height="50" relative="1" as="geometry">
            <mxPoint x="527" y="13" as="sourcePoint" />
            <mxPoint x="559" y="13" as="targetPoint" />
          </mxGeometry>
        </mxCell>
        <mxCell id="kA1zZRthYYEZTJrhDJfg-25" value="s8*s9" style="text;html=1;align=center;verticalAlign=middle;resizable=0;points=[];autosize=1;strokeColor=none;fillColor=none;fontSize=16;" parent="1" vertex="1">
          <mxGeometry x="436" y="-3" width="58" height="31" as="geometry" />
        </mxCell>
        <mxCell id="kA1zZRthYYEZTJrhDJfg-26" value="s10" style="text;html=1;align=center;verticalAlign=middle;resizable=0;points=[];autosize=1;strokeColor=none;fillColor=none;fontSize=16;" parent="1" vertex="1">
          <mxGeometry x="556" y="-3" width="44" height="31" as="geometry" />
        </mxCell>
        <mxCell id="kA1zZRthYYEZTJrhDJfg-27" style="edgeStyle=none;curved=1;rounded=0;orthogonalLoop=1;jettySize=auto;html=1;exitX=0.5;exitY=1;exitDx=0;exitDy=0;fontSize=12;startSize=8;endSize=8;" parent="1" source="kA1zZRthYYEZTJrhDJfg-6" target="kA1zZRthYYEZTJrhDJfg-7" edge="1">
          <mxGeometry relative="1" as="geometry">
            <mxPoint x="96" y="183" as="targetPoint" />
          </mxGeometry>
        </mxCell>
        <mxCell id="kA1zZRthYYEZTJrhDJfg-28" value="" style="endArrow=none;html=1;rounded=0;fontSize=12;startSize=8;endSize=8;curved=1;" parent="1" edge="1">
          <mxGeometry width="50" height="50" relative="1" as="geometry">
            <mxPoint x="79.5" y="140" as="sourcePoint" />
            <mxPoint x="111.5" y="140" as="targetPoint" />
          </mxGeometry>
        </mxCell>
        <mxCell id="kA1zZRthYYEZTJrhDJfg-29" value="s10&lt;div&gt;&lt;br&gt;&lt;/div&gt;" style="text;html=1;align=center;verticalAlign=middle;resizable=0;points=[];autosize=1;strokeColor=none;fillColor=none;fontSize=16;" parent="1" vertex="1">
          <mxGeometry x="110" y="125" width="44" height="50" as="geometry" />
        </mxCell>
        <mxCell id="kA1zZRthYYEZTJrhDJfg-31" value="" style="endArrow=none;html=1;rounded=0;fontSize=12;startSize=8;endSize=8;curved=1;" parent="1" edge="1">
          <mxGeometry width="50" height="50" relative="1" as="geometry">
            <mxPoint x="-297" y="195" as="sourcePoint" />
            <mxPoint x="518" y="195" as="targetPoint" />
          </mxGeometry>
        </mxCell>
        <mxCell id="kA1zZRthYYEZTJrhDJfg-35" value="" style="endArrow=none;html=1;rounded=0;fontSize=12;startSize=8;endSize=8;curved=1;" parent="1" edge="1">
          <mxGeometry width="50" height="50" relative="1" as="geometry">
            <mxPoint x="-297" y="238" as="sourcePoint" />
            <mxPoint x="-297" y="195" as="targetPoint" />
          </mxGeometry>
        </mxCell>
        <mxCell id="kA1zZRthYYEZTJrhDJfg-36" value="" style="endArrow=none;html=1;rounded=0;fontSize=12;startSize=8;endSize=8;curved=1;" parent="1" edge="1">
          <mxGeometry width="50" height="50" relative="1" as="geometry">
            <mxPoint x="519" y="238" as="sourcePoint" />
            <mxPoint x="519" y="195" as="targetPoint" />
          </mxGeometry>
        </mxCell>
        <mxCell id="kA1zZRthYYEZTJrhDJfg-37" value="3" style="rounded=0;whiteSpace=wrap;html=1;" parent="1" vertex="1">
          <mxGeometry x="-345" y="238" width="97" height="64" as="geometry" />
        </mxCell>
        <mxCell id="kA1zZRthYYEZTJrhDJfg-38" value="5" style="rounded=0;whiteSpace=wrap;html=1;" parent="1" vertex="1">
          <mxGeometry x="470" y="238" width="97" height="64" as="geometry" />
        </mxCell>
        <mxCell id="kA1zZRthYYEZTJrhDJfg-39" value="Contador:=Contador&lt;div&gt;+1&lt;/div&gt;" style="rounded=1;whiteSpace=wrap;html=1;" parent="1" vertex="1">
          <mxGeometry x="-248" y="244" width="114" height="52" as="geometry" />
        </mxCell>
        <mxCell id="kA1zZRthYYEZTJrhDJfg-40" value="Ensamble barco" style="rounded=1;whiteSpace=wrap;html=1;" parent="1" vertex="1">
          <mxGeometry x="258" y="244" width="114" height="52" as="geometry" />
        </mxCell>
        <mxCell id="kA1zZRthYYEZTJrhDJfg-41" value="Ensamble casa" style="rounded=1;whiteSpace=wrap;html=1;" parent="1" vertex="1">
          <mxGeometry x="681" y="242" width="114" height="52" as="geometry" />
        </mxCell>
        <mxCell id="kA1zZRthYYEZTJrhDJfg-42" value="" style="endArrow=none;html=1;rounded=0;fontSize=12;startSize=8;endSize=8;curved=1;" parent="1" edge="1">
          <mxGeometry width="50" height="50" relative="1" as="geometry">
            <mxPoint x="-294" y="435" as="sourcePoint" />
            <mxPoint x="527" y="434" as="targetPoint" />
          </mxGeometry>
        </mxCell>
        <mxCell id="kA1zZRthYYEZTJrhDJfg-44" value="" style="endArrow=none;html=1;rounded=0;fontSize=12;startSize=8;endSize=8;curved=1;" parent="1" target="kA1zZRthYYEZTJrhDJfg-37" edge="1">
          <mxGeometry width="50" height="50" relative="1" as="geometry">
            <mxPoint x="-294" y="437" as="sourcePoint" />
            <mxPoint x="-294" y="384" as="targetPoint" />
          </mxGeometry>
        </mxCell>
        <mxCell id="kA1zZRthYYEZTJrhDJfg-45" value="" style="endArrow=none;html=1;rounded=0;fontSize=12;startSize=8;endSize=8;curved=1;" parent="1" edge="1">
          <mxGeometry width="50" height="50" relative="1" as="geometry">
            <mxPoint x="98" y="543" as="sourcePoint" />
            <mxPoint x="95" y="302" as="targetPoint" />
          </mxGeometry>
        </mxCell>
        <mxCell id="kA1zZRthYYEZTJrhDJfg-46" value="" style="endArrow=none;html=1;rounded=0;fontSize=12;startSize=8;endSize=8;curved=1;" parent="1" edge="1">
          <mxGeometry width="50" height="50" relative="1" as="geometry">
            <mxPoint x="524" y="435" as="sourcePoint" />
            <mxPoint x="522" y="300" as="targetPoint" />
          </mxGeometry>
        </mxCell>
        <mxCell id="kA1zZRthYYEZTJrhDJfg-47" value="" style="endArrow=none;html=1;rounded=0;fontSize=12;startSize=8;endSize=8;curved=1;" parent="1" edge="1">
          <mxGeometry width="50" height="50" relative="1" as="geometry">
            <mxPoint x="77" y="212" as="sourcePoint" />
            <mxPoint x="109" y="212" as="targetPoint" />
          </mxGeometry>
        </mxCell>
        <mxCell id="kA1zZRthYYEZTJrhDJfg-48" value="" style="endArrow=none;html=1;rounded=0;fontSize=12;startSize=8;endSize=8;curved=1;" parent="1" edge="1">
          <mxGeometry width="50" height="50" relative="1" as="geometry">
            <mxPoint x="502.5" y="220" as="sourcePoint" />
            <mxPoint x="534.5" y="220" as="targetPoint" />
          </mxGeometry>
        </mxCell>
        <mxCell id="kA1zZRthYYEZTJrhDJfg-49" value="" style="endArrow=none;html=1;rounded=0;fontSize=12;startSize=8;endSize=8;curved=1;" parent="1" edge="1">
          <mxGeometry width="50" height="50" relative="1" as="geometry">
            <mxPoint x="-311" y="218" as="sourcePoint" />
            <mxPoint x="-279" y="218" as="targetPoint" />
          </mxGeometry>
        </mxCell>
        <mxCell id="kA1zZRthYYEZTJrhDJfg-51" value="s11*s12*s13*s14*s15&lt;div&gt;&lt;br&gt;&lt;/div&gt;" style="text;html=1;align=center;verticalAlign=middle;resizable=0;points=[];autosize=1;strokeColor=none;fillColor=none;fontSize=16;" parent="1" vertex="1">
          <mxGeometry x="-283" y="202" width="171" height="50" as="geometry" />
        </mxCell>
        <mxCell id="kA1zZRthYYEZTJrhDJfg-53" value="s16*s17*s18" style="text;html=1;align=center;verticalAlign=middle;resizable=0;points=[];autosize=1;strokeColor=none;fillColor=none;fontSize=16;" parent="1" vertex="1">
          <mxGeometry x="107" y="200" width="108" height="31" as="geometry" />
        </mxCell>
        <mxCell id="kA1zZRthYYEZTJrhDJfg-54" value="" style="endArrow=none;html=1;rounded=0;fontSize=12;startSize=8;endSize=8;curved=1;" parent="1" edge="1">
          <mxGeometry width="50" height="50" relative="1" as="geometry">
            <mxPoint x="82" y="479" as="sourcePoint" />
            <mxPoint x="114" y="479" as="targetPoint" />
          </mxGeometry>
        </mxCell>
        <mxCell id="kA1zZRthYYEZTJrhDJfg-55" value="s19*s20" style="text;html=1;align=center;verticalAlign=middle;resizable=0;points=[];autosize=1;strokeColor=none;fillColor=none;fontSize=16;" parent="1" vertex="1">
          <mxGeometry x="536" y="202" width="76" height="31" as="geometry" />
        </mxCell>
        <mxCell id="AHW6eDkfj2Qgrtjn53hn-1" value="Ensamble moto" style="rounded=1;whiteSpace=wrap;html=1;" parent="1" vertex="1">
          <mxGeometry x="-134" y="244" width="114" height="52" as="geometry" />
        </mxCell>
        <mxCell id="AHW6eDkfj2Qgrtjn53hn-2" value="Contador:=Contador&lt;div&gt;+1&lt;/div&gt;" style="rounded=1;whiteSpace=wrap;html=1;" parent="1" vertex="1">
          <mxGeometry x="144" y="244" width="114" height="52" as="geometry" />
        </mxCell>
        <mxCell id="AHW6eDkfj2Qgrtjn53hn-3" value="Contador:=Contador&lt;div&gt;+1&lt;/div&gt;" style="rounded=1;whiteSpace=wrap;html=1;" parent="1" vertex="1">
          <mxGeometry x="567" y="244" width="114" height="52" as="geometry" />
        </mxCell>
        <mxCell id="AHW6eDkfj2Qgrtjn53hn-4" value="s21" style="text;html=1;align=center;verticalAlign=middle;resizable=0;points=[];autosize=1;strokeColor=none;fillColor=none;" parent="1" vertex="1">
          <mxGeometry x="110" y="467" width="37" height="26" as="geometry" />
        </mxCell>
        <mxCell id="AHW6eDkfj2Qgrtjn53hn-5" value="6" style="rounded=0;whiteSpace=wrap;html=1;" parent="1" vertex="1">
          <mxGeometry x="50" y="543" width="97" height="64" as="geometry" />
        </mxCell>
        <mxCell id="AHW6eDkfj2Qgrtjn53hn-6" value="ElevaciÃ³n de&amp;nbsp;&lt;div&gt;lÃ­mites&lt;/div&gt;" style="rounded=1;whiteSpace=wrap;html=1;" parent="1" vertex="1">
          <mxGeometry x="147" y="549" width="114" height="52" as="geometry" />
        </mxCell>
        <mxCell id="AHW6eDkfj2Qgrtjn53hn-8" value="7" style="rounded=0;whiteSpace=wrap;html=1;" parent="1" vertex="1">
          <mxGeometry x="55" y="687" width="97" height="64" as="geometry" />
        </mxCell>
        <mxCell id="AHW6eDkfj2Qgrtjn53hn-9" value="Encender banda 2&lt;div&gt;&lt;br&gt;&lt;/div&gt;" style="rounded=1;whiteSpace=wrap;html=1;" parent="1" vertex="1">
          <mxGeometry x="152" y="693" width="114" height="52" as="geometry" />
        </mxCell>
        <mxCell id="AHW6eDkfj2Qgrtjn53hn-11" value="" style="endArrow=none;html=1;rounded=0;exitX=0.444;exitY=0.016;exitDx=0;exitDy=0;exitPerimeter=0;entryX=0.5;entryY=1;entryDx=0;entryDy=0;" parent="1" source="AHW6eDkfj2Qgrtjn53hn-8" target="AHW6eDkfj2Qgrtjn53hn-5" edge="1">
          <mxGeometry width="50" height="50" relative="1" as="geometry">
            <mxPoint x="98.02" y="680" as="sourcePoint" />
            <mxPoint x="98.02" y="613" as="targetPoint" />
          </mxGeometry>
        </mxCell>
        <mxCell id="AHW6eDkfj2Qgrtjn53hn-13" value="" style="endArrow=none;html=1;rounded=0;fontSize=12;startSize=8;endSize=8;curved=1;" parent="1" edge="1">
          <mxGeometry width="50" height="50" relative="1" as="geometry">
            <mxPoint x="82" y="637" as="sourcePoint" />
            <mxPoint x="114" y="637" as="targetPoint" />
          </mxGeometry>
        </mxCell>
        <mxCell id="AHW6eDkfj2Qgrtjn53hn-14" value="s22" style="text;html=1;align=center;verticalAlign=middle;resizable=0;points=[];autosize=1;strokeColor=none;fillColor=none;" parent="1" vertex="1">
          <mxGeometry x="110" y="625" width="37" height="26" as="geometry" />
        </mxCell>
        <mxCell id="AHW6eDkfj2Qgrtjn53hn-15" value="8" style="rounded=0;whiteSpace=wrap;html=1;" parent="1" vertex="1">
          <mxGeometry x="55" y="832" width="97" height="64" as="geometry" />
        </mxCell>
        <mxCell id="AHW6eDkfj2Qgrtjn53hn-17" value="" style="endArrow=none;html=1;rounded=0;exitX=0.444;exitY=0.016;exitDx=0;exitDy=0;exitPerimeter=0;entryX=0.5;entryY=1;entryDx=0;entryDy=0;" parent="1" edge="1">
          <mxGeometry width="50" height="50" relative="1" as="geometry">
            <mxPoint x="103" y="832" as="sourcePoint" />
            <mxPoint x="104" y="751" as="targetPoint" />
          </mxGeometry>
        </mxCell>
        <mxCell id="AHW6eDkfj2Qgrtjn53hn-18" value="" style="endArrow=none;html=1;rounded=0;fontSize=12;startSize=8;endSize=8;curved=1;" parent="1" edge="1">
          <mxGeometry width="50" height="50" relative="1" as="geometry">
            <mxPoint x="87" y="781" as="sourcePoint" />
            <mxPoint x="119" y="781" as="targetPoint" />
          </mxGeometry>
        </mxCell>
        <mxCell id="AHW6eDkfj2Qgrtjn53hn-19" value="s23-banda encendida" style="text;html=1;align=center;verticalAlign=middle;resizable=0;points=[];autosize=1;strokeColor=none;fillColor=none;" parent="1" vertex="1">
          <mxGeometry x="115" y="767" width="133" height="26" as="geometry" />
        </mxCell>
        <mxCell id="AHW6eDkfj2Qgrtjn53hn-20" value="Dispensador de cajas&lt;br&gt;&lt;div&gt;&lt;br&gt;&lt;/div&gt;" style="rounded=1;whiteSpace=wrap;html=1;" parent="1" vertex="1">
          <mxGeometry x="152" y="838" width="114" height="52" as="geometry" />
        </mxCell>
        <mxCell id="AHW6eDkfj2Qgrtjn53hn-21" value="SeparaciÃ³n por&amp;nbsp; bandas" style="rounded=1;whiteSpace=wrap;html=1;" parent="1" vertex="1">
          <mxGeometry x="266" y="838" width="114" height="52" as="geometry" />
        </mxCell>
        <mxCell id="AHW6eDkfj2Qgrtjn53hn-22" value="&lt;div&gt;Empaquetamiento&lt;/div&gt;" style="rounded=1;whiteSpace=wrap;html=1;" parent="1" vertex="1">
          <mxGeometry x="380" y="838" width="114" height="52" as="geometry" />
        </mxCell>
        <mxCell id="AHW6eDkfj2Qgrtjn53hn-26" value="" style="endArrow=none;html=1;rounded=0;fontSize=12;startSize=8;endSize=8;curved=1;" parent="1" edge="1">
          <mxGeometry width="50" height="50" relative="1" as="geometry">
            <mxPoint x="290" y="811.5" as="sourcePoint" />
            <mxPoint x="322" y="811.5" as="targetPoint" />
          </mxGeometry>
        </mxCell>
        <mxCell id="AHW6eDkfj2Qgrtjn53hn-27" value="s24-CV" style="text;html=1;align=center;verticalAlign=middle;resizable=0;points=[];autosize=1;strokeColor=none;fillColor=none;" parent="1" vertex="1">
          <mxGeometry x="322" y="799" width="58" height="26" as="geometry" />
        </mxCell>
        <mxCell id="AHW6eDkfj2Qgrtjn53hn-28" value="" style="endArrow=none;html=1;rounded=0;exitX=0.444;exitY=0.016;exitDx=0;exitDy=0;exitPerimeter=0;" parent="1" edge="1">
          <mxGeometry width="50" height="50" relative="1" as="geometry">
            <mxPoint x="306" y="838" as="sourcePoint" />
            <mxPoint x="307" y="781" as="targetPoint" />
          </mxGeometry>
        </mxCell>
        <mxCell id="AHW6eDkfj2Qgrtjn53hn-29" value="9" style="rounded=0;whiteSpace=wrap;html=1;" parent="1" vertex="1">
          <mxGeometry x="55" y="977" width="97" height="64" as="geometry" />
        </mxCell>
        <mxCell id="AHW6eDkfj2Qgrtjn53hn-30" value="" style="endArrow=none;html=1;rounded=0;exitX=0.444;exitY=0.016;exitDx=0;exitDy=0;exitPerimeter=0;entryX=0.5;entryY=1;entryDx=0;entryDy=0;" parent="1" edge="1">
          <mxGeometry width="50" height="50" relative="1" as="geometry">
            <mxPoint x="103" y="977" as="sourcePoint" />
            <mxPoint x="104" y="896" as="targetPoint" />
          </mxGeometry>
        </mxCell>
        <mxCell id="AHW6eDkfj2Qgrtjn53hn-31" value="" style="endArrow=none;html=1;rounded=0;fontSize=12;startSize=8;endSize=8;curved=1;" parent="1" edge="1">
          <mxGeometry width="50" height="50" relative="1" as="geometry">
            <mxPoint x="87" y="926" as="sourcePoint" />
            <mxPoint x="119" y="926" as="targetPoint" />
          </mxGeometry>
        </mxCell>
        <mxCell id="AHW6eDkfj2Qgrtjn53hn-33" value="s25 o s26 o s7" style="text;html=1;align=center;verticalAlign=middle;resizable=0;points=[];autosize=1;strokeColor=none;fillColor=none;" parent="1" vertex="1">
          <mxGeometry x="121" y="913" width="96" height="26" as="geometry" />
        </mxCell>
        <mxCell id="AHW6eDkfj2Qgrtjn53hn-34" value="&lt;div&gt;Converger juguetes a una sola banda&lt;/div&gt;" style="rounded=1;whiteSpace=wrap;html=1;" parent="1" vertex="1">
          <mxGeometry x="152" y="980" width="114" height="52" as="geometry" />
        </mxCell>
        <mxCell id="AHW6eDkfj2Qgrtjn53hn-35" value="10" style="rounded=0;whiteSpace=wrap;html=1;" parent="1" vertex="1">
          <mxGeometry x="55" y="1121" width="97" height="64" as="geometry" />
        </mxCell>
        <mxCell id="AHW6eDkfj2Qgrtjn53hn-36" value="" style="endArrow=none;html=1;rounded=0;exitX=0.444;exitY=0.016;exitDx=0;exitDy=0;exitPerimeter=0;entryX=0.5;entryY=1;entryDx=0;entryDy=0;" parent="1" edge="1">
          <mxGeometry width="50" height="50" relative="1" as="geometry">
            <mxPoint x="103" y="1122" as="sourcePoint" />
            <mxPoint x="104" y="1041" as="targetPoint" />
          </mxGeometry>
        </mxCell>
        <mxCell id="AHW6eDkfj2Qgrtjn53hn-37" value="" style="endArrow=none;html=1;rounded=0;fontSize=12;startSize=8;endSize=8;curved=1;" parent="1" edge="1">
          <mxGeometry width="50" height="50" relative="1" as="geometry">
            <mxPoint x="87" y="1071" as="sourcePoint" />
            <mxPoint x="119" y="1071" as="targetPoint" />
          </mxGeometry>
        </mxCell>
        <mxCell id="AHW6eDkfj2Qgrtjn53hn-38" value="s28-lector QR" style="text;html=1;align=center;verticalAlign=middle;resizable=0;points=[];autosize=1;strokeColor=none;fillColor=none;" parent="1" vertex="1">
          <mxGeometry x="119" y="1058" width="92" height="26" as="geometry" />
        </mxCell>
        <mxCell id="AHW6eDkfj2Qgrtjn53hn-40" value="Pick and place" style="rounded=1;whiteSpace=wrap;html=1;" parent="1" vertex="1">
          <mxGeometry x="152" y="1124" width="114" height="52" as="geometry" />
        </mxCell>
        <mxCell id="AHW6eDkfj2Qgrtjn53hn-43" value="" style="endArrow=none;html=1;rounded=0;" parent="1" edge="1">
          <mxGeometry width="50" height="50" relative="1" as="geometry">
            <mxPoint x="106" y="1319" as="sourcePoint" />
            <mxPoint x="106" y="1188" as="targetPoint" />
            <Array as="points">
              <mxPoint x="106" y="1268" />
            </Array>
          </mxGeometry>
        </mxCell>
        <mxCell id="AHW6eDkfj2Qgrtjn53hn-44" value="" style="endArrow=none;html=1;rounded=0;" parent="1" edge="1">
          <mxGeometry width="50" height="50" relative="1" as="geometry">
            <mxPoint x="-532" y="1321" as="sourcePoint" />
            <mxPoint x="107" y="1321" as="targetPoint" />
          </mxGeometry>
        </mxCell>
        <mxCell id="AHW6eDkfj2Qgrtjn53hn-45" value="" style="endArrow=none;html=1;rounded=0;" parent="1" edge="1">
          <mxGeometry width="50" height="50" relative="1" as="geometry">
            <mxPoint x="-530" y="-7" as="sourcePoint" />
            <mxPoint x="-530" y="1322.5" as="targetPoint" />
          </mxGeometry>
        </mxCell>
        <mxCell id="AHW6eDkfj2Qgrtjn53hn-46" value="" style="endArrow=none;html=1;rounded=0;" parent="1" edge="1">
          <mxGeometry width="50" height="50" relative="1" as="geometry">
            <mxPoint x="-529" y="-5.330000000000041" as="sourcePoint" />
            <mxPoint x="93" y="-13" as="targetPoint" />
          </mxGeometry>
        </mxCell>
        <mxCell id="22Z3GsCY5tabhxmAVXv--3" value="" style="endArrow=none;html=1;rounded=0;fontSize=12;startSize=8;endSize=8;curved=1;" edge="1" parent="1">
          <mxGeometry width="50" height="50" relative="1" as="geometry">
            <mxPoint x="87" y="1238" as="sourcePoint" />
            <mxPoint x="119" y="1238" as="targetPoint" />
          </mxGeometry>
        </mxCell>
        <mxCell id="22Z3GsCY5tabhxmAVXv--4" value="s29" style="text;html=1;align=center;verticalAlign=middle;resizable=0;points=[];autosize=1;strokeColor=none;fillColor=none;" vertex="1" parent="1">
          <mxGeometry x="121" y="1227" width="37" height="26" as="geometry" />
        </mxCell>
      </root>
    </mxGraphModel>
  </diagram>
</mxfile>
